<svg id="Layer_1" data-name="Layer 1" xmlns="http://www.w3.org/2000/svg" viewBox="0 0 546.47 80"><defs><style>.cls-1{fill:#3f3e3b}.cls-2{fill:#393939}</style></defs><title>Master_Logo</title><path class="cls-1" d="M126.85 38.86a1.28 1.28 0 0 1 1.24-1.24h4.3a1.24 1.24 0 0 1 1.24 1.24v22.45h23.86V38.86a1.24 1.24 0 0 1 1.24-1.24H163a1.28 1.28 0 0 1 1.24 1.24V82a1.28 1.28 0 0 1-1.24 1.25h-4.3a1.24 1.24 0 0 1-1.22-1.25V67.44h-23.86V82a1.24 1.24 0 0 1-1.24 1.24h-4.3a1.28 1.28 0 0 1-1.23-1.24V38.86zm70.47 42.69l20-43.86a1.53 1.53 0 0 1 1.11-.72h.65a1.53 1.53 0 0 1 1.11.72l19.88 43.86a1.15 1.15 0 0 1-1.07 1.7h-4.11a1.52 1.52 0 0 1-1.5-1l-4-8.93H208c-1.3 3-2.67 5.93-4 8.93a1.64 1.64 0 0 1-1.5 1h-4.11a1.15 1.15 0 0 1-1.07-1.7zm29.53-13.82l-8-17.86h-.35l-8 17.86h16.3zm36.3-28.41a1.15 1.15 0 0 1 1.11-1.69h4.63a1.28 1.28 0 0 1 1.11.72l14.33 32.25h.39l14.34-32.26a1.2 1.2 0 0 1 1.11-.72h4.63a1.15 1.15 0 0 1 1.11 1.69l-20 43.86a1.24 1.24 0 0 1-1.11.72h-.65a1.32 1.32 0 0 1-1.11-.72zm75.85-.46a1.24 1.24 0 0 1 1.24-1.24h29.2a1.24 1.24 0 0 1 1.24 1.24v3.65a1.24 1.24 0 0 1-1.24 1.24H345.7v17.56H363a1.28 1.28 0 0 1 1.24 1.24v3.65a1.24 1.24 0 0 1-1.24 1.24h-17.3v9.74h23.72a1.24 1.24 0 0 1 1.24 1.24V82a1.24 1.24 0 0 1-1.24 1.24h-29.2A1.24 1.24 0 0 1 339 82V38.86zm64.14-.72a1.17 1.17 0 0 1 1.17-1.14h1.33a.8.8 0 0 1 .61.28l28 32.44h.07V38.86a1.24 1.24 0 0 1 1.24-1.24h4.17a1.24 1.24 0 0 1 1.27 1.24v43.86a1.17 1.17 0 0 1-1.17 1.17h-1.39a.8.8 0 0 1-.61-.29l-28-33.35h-.07V82a1.24 1.24 0 0 1-1.24 1.24h-4.11a1.24 1.24 0 0 1-1.27-1.24V38.14zm75.04.72a1.24 1.24 0 0 1 1.24-1.24h4.3a1.28 1.28 0 0 1 1.28 1.24v38.32h25.7a1.24 1.24 0 0 1 1.24 1.24V82a1.24 1.24 0 0 1-1.24 1.24h-31.28a1.24 1.24 0 0 1-1.24-1.24V38.86zm71.04 22.42L534 39.51a1.21 1.21 0 0 1 1-1.89h4.82a1.3 1.3 0 0 1 1 .59l11.8 16.62 11.8-16.62a1.4 1.4 0 0 1 1-.59h4.89a1.21 1.21 0 0 1 1 1.89L556 61.22V82a1.28 1.28 0 0 1-1.24 1.24h-4.3a1.24 1.24 0 0 1-1.24-1.24V61.28z" transform="translate(-25.18 -19.92)"/><path class="cls-2" d="M82.18 42.75l14.59 14.6a31.83 31.83 0 0 0-29.19-29.19l14.6 14.59zm-9.59 25.98a1 1 0 0 1-.29-.73v-7.17H57.88V68a1 1 0 0 1-.29.7l-6.51 6.51h28z" transform="translate(-25.18 -19.92)"/><path class="cls-2" d="M55.31 25.92l-6.22 6.22v15.57l6.22 6.21v-28zm-30.8 28l6.22-6.21V32.14l-6.22-6.22v28z"/><path class="cls-2" d="M72.3 58.85v-7.2a1 1 0 0 1 .29-.7l6.51-6.51h-28l6.51 6.51a1 1 0 0 1 .29.7v7.21h14.4z" transform="translate(-25.18 -19.92)"/><path class="cls-2" d="M53.91 22.55l-14-14.01-14 14.01h28zm17.38 17.37l-14-14v28l14-14z"/><path class="cls-2" d="M82.18 76.93l-14.6 14.59a31.83 31.83 0 0 0 29.19-29.19l-14.59 14.6z" transform="translate(-25.18 -19.92)"/><path class="cls-2" d="M65.18 19.92a40 40 0 1 0 40 40 40 40 0 0 0-40-40zm-.09 73.69a33.77 33.77 0 1 1 33.77-33.77 33.8 33.8 0 0 1-33.77 33.77z" transform="translate(-25.18 -19.92)"/><path class="cls-2" d="M25.91 57.3l14 14 14-14h-28z"/><path class="cls-2" d="M48 42.75l14.6-14.59a31.83 31.83 0 0 0-29.19 29.19L48 42.75z" transform="translate(-25.18 -19.92)"/><path class="cls-2" d="M22.53 25.92l-14 14 14 14v-28z"/><path class="cls-2" d="M62.6 91.52L33.41 62.33A31.83 31.83 0 0 0 62.6 91.52z" transform="translate(-25.18 -19.92)"/></svg>